<svg width="32" height="32" viewBox="0 0 32 32" fill="none" xmlns="http://www.w3.org/2000/svg">
<path d="M16 0C7.1796 0 0 7.1764 0 16C0 24.8236 7.1796 32 16 32C24.8204 32 32 24.8236 32 16C32 7.1764 24.8236 0 16 0ZM22.9484 19.7952C22.6968 20.5796 22.4484 21.3671 22.189 22.1514C22.0047 22.6999 21.5047 23.028 20.7812 22.9952C19.7328 22.9311 18.5937 22.6468 17.489 22.2108C15.6656 21.4874 14.0297 20.4593 12.6686 19.0312C10.8811 17.1515 9.69208 14.9392 9.17332 12.3876C9.08113 11.9516 9.04207 11.5032 9.00457 11.0594C8.96394 10.5079 9.30457 10.0001 9.83269 9.82352C10.628 9.55477 11.428 9.30008 12.2327 9.04696C12.7968 8.87508 13.3374 9.18758 13.517 9.76728C13.7655 10.5751 14.017 11.3829 14.2686 12.1907C14.2999 12.2907 14.3374 12.3907 14.3733 12.486C14.4452 12.6907 14.4045 12.8626 14.2577 13.0142C13.9733 13.2938 13.6936 13.5782 13.4092 13.8579C13.353 13.9142 13.3499 13.9579 13.378 14.0267C14.3139 16.1501 15.8421 17.6829 17.9656 18.6187C18.0421 18.6546 18.089 18.6499 18.1531 18.5874C18.4296 18.303 18.7093 18.0281 18.989 17.7515C19.1328 17.6031 19.3046 17.564 19.5015 17.6281C20.414 17.9156 21.3218 18.2046 22.2327 18.4874C22.6171 18.6077 22.8734 18.8468 22.9734 19.2437C23.0218 19.428 23.0093 19.6124 22.9499 19.7952L22.9484 19.7952Z" fill="black"/>
</svg>
